<svg data-v-0dd9719b="" version="1.0" xmlns="http://www.w3.org/2000/svg" xmlns:xlink="http://www.w3.org/1999/xlink" width="100%" height="100%" viewBox="0 0 340.000000 250.000000" preserveAspectRatio="xMidYMid meet" color-interpolation-filters="sRGB" style="margin: auto;"> <rect data-v-0dd9719b="" x="0" y="0" width="100%" height="100%" fill="#f9f8f9" fill-opacity="0" class="background"></rect> <rect data-v-0dd9719b="" x="0" y="0" width="100%" height="100%" fill="url(#watermark)" fill-opacity="1" class="watermarklayer"></rect> <g data-v-0dd9719b="" fill="#e69138" class="icon-text-wrapper icon-svg-group iconsvg" transform="translate(4.9199981689453125,64.78203582763672)"><g class="iconsvg-imagesvg" transform="translate(0,0)"><g><rect fill="#e69138" fill-opacity="0" stroke-width="2" x="0" y="0" width="110.40000000000002" height="120.43592568754298" class="image-rect"></rect> <svg filter="url(#colors1488535818)" x="0" y="0" width="110.40000000000002" height="120.43592568754298" filtersec="colorsf8936677929" class="image-svg-svg primary" style="overflow: visible;"><svg xmlns="http://www.w3.org/2000/svg" viewBox="21.332000732421875 -0.0002001386892516166 469.3330078125 511.9982604980469"><path d="M485.521 108.208c-.318-.191-224.938-107.177-224.938-107.177a10.702 10.702 0 0 0-9.167 0S26.795 108.017 26.478 108.208a10.676 10.676 0 0 0-5.146 9.125v256c0 3.823 2.042 7.365 5.375 9.26l223.927 127.958s.006.008.01.01l.014.004.048.027.008-.013a10.644 10.644 0 0 0 5.284 1.419c1.833 0 3.646-.469 5.292-1.406l224-128a10.649 10.649 0 0 0 5.375-9.26v-256a10.672 10.672 0 0 0-5.144-9.124zM128 415.908l-85.333-48.762v-104.18L128 307.664v108.244zm-72.138-298.12l90.803-43.241 84.517 40.245-94.831 45.158-80.489-42.162zm189.471 227.25l-96-50.288V190.835l96 50.289v103.914zm117.334 83.056l-96 54.854V369.125l96-50.286v109.255zm-81.849-313.302l84.517-40.245 90.803 43.241-80.49 42.161-94.83-45.157zm188.515 124.083L384 283.576V179.66l85.333-44.702v103.917z" fill="#000000"></path></svg></svg> <defs><filter id="colors1488535818"><feColorMatrix type="matrix" values="0 0 0 0 0.0078125  0 0 0 0 0.05859375  0 0 0 0 0.25  0 0 0 1 0" class="icon-fecolormatrix"></feColorMatrix></filter> <filter id="colorsf8936677929"><feColorMatrix type="matrix" values="0 0 0 0 0.99609375  0 0 0 0 0.99609375  0 0 0 0 0.99609375  0 0 0 1 0" class="icon-fecolormatrix"></feColorMatrix></filter> <filter id="colorsb1610253955"><feColorMatrix type="matrix" values="0 0 0 0 0  0 0 0 0 0  0 0 0 0 0  0 0 0 1 0" class="icon-fecolormatrix"></feColorMatrix></filter></defs></g></g> <g transform="translate(114.4000015258789,38.617963790893555)"><g data-gra="path-name" fill-rule="" class="tp-name iconsvg-namesvg"><g transform="scale(1)"><g><path d="M4.08 0L11.94 0 11.94-26.88 12.24-26.88 23.52-5.46 29.1-5.46 41.16-26.88 41.46-26.88 41.46 0 49.56 0 49.56-42 41.34-42 26.82-15.18 26.58-15.18 12.18-42 4.08-42ZM57.66 0L74.94 0C87.84 0 91.44-5.04 91.44-11.7 91.44-17.82 85.74-21.24 78.9-21.54L78.9-21.84C84.12-22.44 87.72-25.62 87.72-31.26 87.72-37.14 85.02-42 73.32-42L57.66-42ZM65.76-24.54L65.76-35.64 72.42-35.64C77.76-35.64 80.04-34.02 80.04-30.36 80.04-26.04 76.68-24.54 72.12-24.54ZM65.76-6.42L65.76-18.42 72.9-18.42C78.84-18.42 82.86-16.32 82.86-12.12 82.86-7.92 79.8-6.42 73.02-6.42ZM104.58-12.54L104.58-42 96.42-42 96.42-12.54ZM96.42 0L126.96 0 126.96-7.92 96.42-7.92ZM150.48-42.6L150.48-34.92C158.4-34.92 164.4-30.36 164.4-21 164.4-11.64 158.4-7.02 150.48-7.02 142.8-7.02 136.86-11.64 136.86-21 136.86-21 128.7-21 128.7-21 128.7-7.14 138.36 0.6 150.48 0.6 162.9 0.6 172.5-6.54 172.5-21 172.5-34.8 162.9-42.6 150.48-42.6ZM184.98-21C184.98-29.16 190.62-35.46 199.02-35.46 205.44-35.46 209.58-32.46 211.14-27.66L219.72-27.66C217.68-38.16 210.42-42.6 198.96-42.6 185.58-42.6 177.12-34.2 177.12-21ZM198.36 0L212.28-10.02 212.28 0 219.84 0C219.84-0.3 219.84-22.08 219.84-22.38L197.52-22.38 197.52-16.5 209.64-16.5 186.72 0Z" transform="translate(-4.079999923706055, 42.599998474121094)"></path></g> <!----> <!----> <!----> <!----> <!----> <!----> <!----></g></g> <!----></g></g><defs v-gra="od"></defs></svg>